<svg xmlns="http://www.w3.org/2000/svg" width="40" height="45.714" viewBox="0 0 40 45.714">
  <path id="user" d="M28,25.714c-2.563,0-3.795,1.429-8,1.429s-5.429-1.429-8-1.429a12,12,0,0,0-12,12v3.714a4.287,4.287,0,0,0,4.286,4.286H35.714A4.287,4.287,0,0,0,40,41.429V37.714A12,12,0,0,0,28,25.714Zm9.143,15.714a1.433,1.433,0,0,1-1.429,1.429H4.286a1.433,1.433,0,0,1-1.429-1.429V37.714A9.149,9.149,0,0,1,12,28.571c1.75,0,3.491,1.429,8,1.429s6.25-1.429,8-1.429a9.149,9.149,0,0,1,9.143,9.143ZM20,22.857A11.429,11.429,0,1,0,8.571,11.429,11.428,11.428,0,0,0,20,22.857Zm0-20a8.571,8.571,0,1,1-8.571,8.571A8.585,8.585,0,0,1,20,2.857Z"/>
</svg>
