<svg xmlns="http://www.w3.org/2000/svg" width="40" height="40" viewBox="0 0 40 40">
  <path id="user-circle" d="M20,8A20,20,0,1,0,40,28,20,20,0,0,0,20,8ZM30.323,42A17.291,17.291,0,0,1,9.677,42V40.9a5.166,5.166,0,0,1,5.161-5.161c.9,0,2.218.919,5.161.919s4.258-.919,5.161-.919A5.166,5.166,0,0,1,30.323,40.9Zm2.468-2.218a7.717,7.717,0,0,0-7.629-6.621c-1.653,0-2.452.919-5.161.919s-3.5-.919-5.161-.919A7.717,7.717,0,0,0,7.21,39.782a17.419,17.419,0,1,1,25.581,0ZM20,17.032a7.1,7.1,0,1,0,7.1,7.1A7.1,7.1,0,0,0,20,17.032Zm0,11.613a4.516,4.516,0,1,1,4.516-4.516A4.519,4.519,0,0,1,20,28.645Z" transform="translate(0 -8)"/>
</svg>
